# xmcd CD database file
#
# Track frame offsets:
#	150
#	3562
#	13221
#	33203
#	43029
#	64072
#	66936
#	71241
#	89382
#	91489
#	103263
#
# Disc length: 1462 seconds
#
# Revision: 1
# Processed by: cddbd v1.5.2PL0 Copyright (c) Steve Scherf et al.
# Submitted via: CDex 1.70beta2
#
DISCID=9805b40b
DTITLE=Karl Seglem and Christoph Stiefel Group - Monsterjazz
DYEAR=2018
DGENRE=Jazz
TTITLE0=Monsterjazzsongen
TTITLE1=Haloimonsteret
TTITLE2=Monsterjazzmelodien
TTITLE3=Jordmørkemonsteret (Dark Earth Monster)
TTITLE4=Kvin Klikk Splakk Klin
TTITLE5=Trommelommebommetema
TTITLE6=Sakte Monsterjazzmelodi
TTITLE7=There Are Monsters
TTITLE8=Glitrande Monsterjazzmelodi
TTITLE9=The Monsterjazzmelody
TTITLE10=Finalemonsterjazz
EXTD=YEAR: 2018
EXTT0=
EXTT1=
EXTT2=
EXTT3=
EXTT4=
EXTT5=
EXTT6=
EXTT7=
EXTT8=
EXTT9=
EXTT10=
PLAYORDER=
